<svg width="94" height="25" viewBox="0 0 94 25" fill="none" xmlns="http://www.w3.org/2000/svg">
<path d="M15.275 7.32498L13.075 14.45L10.85 7.32498H8.1L5.875 14.45L3.675 7.32498H0.125L4.375 19H7.175L9.5 11.425L11.9 19H14.7L18.825 7.32498H15.275Z" fill="white"/>
<path d="M20.7691 5.27498C21.9191 5.27498 22.8441 4.39997 22.8441 3.29998C22.8441 2.19997 21.9191 1.34998 20.7691 1.34998C19.6441 1.34998 18.6941 2.19997 18.6941 3.29998C18.6941 4.39997 19.6441 5.27498 20.7691 5.27498ZM19.1441 19H22.4191V7.32498H19.1441V19Z" fill="white"/>
<path d="M34.0615 7.32498H23.9115V10.375H29.2615L23.5615 16.525V19H34.0615V15.95H28.2365L34.0615 9.82498V7.32498Z" fill="white"/>
<path d="M43.9865 7.32498V8.87498C43.2115 7.67498 41.7115 7.02498 40.1865 7.02498C37.2115 7.02498 34.5115 9.59998 34.5115 13.175C34.5115 16.95 37.2615 19.3 40.1365 19.3C41.6865 19.3 43.2115 18.525 43.9865 17.325V19H47.2615V7.32498H43.9865ZM40.8615 16.25C39.1115 16.25 37.8365 14.8 37.8365 13.175C37.8365 11.475 39.1115 10.075 40.8365 10.075C42.4615 10.075 43.8865 11.4 43.8865 13.175C43.8865 14.85 42.5115 16.25 40.8615 16.25Z" fill="white"/>
<path d="M55.743 7.02498C54.293 7.02498 52.968 7.87498 52.318 9.82498V7.32498H49.068V19H52.343V15C52.343 11.675 53.493 10.1 55.168 10.1C55.568 10.1 56.143 10.15 56.843 10.525L57.593 7.39998C57.068 7.12498 56.368 7.02498 55.743 7.02498Z" fill="white"/>
<path d="M66.3527 0.974976V8.74998C65.5277 7.54998 63.9527 7.02498 62.6027 7.02498C59.6027 7.02498 56.8777 9.39998 56.8777 13.15C56.8777 16.9 59.6027 19.3 62.6027 19.3C63.9027 19.3 65.5277 18.75 66.3527 17.55V19H69.6277V0.974976H66.3527ZM63.2277 16.25C61.5777 16.25 60.2027 14.85 60.2027 13.15C60.2027 11.425 61.5777 10.075 63.2277 10.075C64.7527 10.075 66.2527 11.35 66.2527 13.15C66.2527 14.925 64.8277 16.25 63.2277 16.25Z" fill="white"/>
<path d="M78.1092 7.02498C76.6592 7.02498 75.3342 7.87498 74.6842 9.82498V7.32498H71.4342V19H74.7092V15C74.7092 11.675 75.8592 10.1 77.5342 10.1C77.9342 10.1 78.5092 10.15 79.2092 10.525L79.9592 7.39998C79.4342 7.12498 78.7342 7.02498 78.1092 7.02498Z" fill="white"/>
<path d="M86.7619 7.32498L84.0869 14.075L81.3369 7.32498H77.7369L82.3369 17.9L79.5869 24.725H83.0869L90.2869 7.32498H86.7619Z" fill="white"/>
<path d="M90.983 19.225C92.133 19.225 93.108 18.375 93.108 17.2C93.108 16.05 92.133 15.2 90.983 15.2C89.858 15.2 88.908 16.05 88.908 17.2C88.908 18.375 89.858 19.225 90.983 19.225Z" fill="white"/>
</svg>
